<mxfile host="app.diagrams.net" agent="Mozilla/5.0 (Windows NT 10.0; Win64; x64) AppleWebKit/537.36 (KHTML, like Gecko) Chrome/134.0.0.0 Safari/537.36" version="26.1.0">
  <diagram name="Page-1" id="uA4JLXXf0o9j15-DeVlW">
    <mxGraphModel dx="794" dy="458" grid="1" gridSize="10" guides="1" tooltips="1" connect="1" arrows="1" fold="1" page="1" pageScale="1" pageWidth="850" pageHeight="1100" math="0" shadow="0">
      <root>
        <mxCell id="0" />
        <mxCell id="1" parent="0" />
        <mxCell id="YTlHd1Vyg8An8Amco3qV-1" value="Station-Weather-UI" style="rounded=1;whiteSpace=wrap;html=1;" vertex="1" parent="1">
          <mxGeometry x="30" y="180" width="120" height="60" as="geometry" />
        </mxCell>
        <mxCell id="YTlHd1Vyg8An8Amco3qV-2" value="" style="outlineConnect=0;dashed=0;verticalLabelPosition=bottom;verticalAlign=top;align=center;html=1;shape=mxgraph.aws3.api_gateway;fillColor=#D9A741;gradientColor=none;" vertex="1" parent="1">
          <mxGeometry x="280" y="85" width="50" height="70" as="geometry" />
        </mxCell>
        <mxCell id="YTlHd1Vyg8An8Amco3qV-16" value="" style="edgeStyle=orthogonalEdgeStyle;rounded=0;orthogonalLoop=1;jettySize=auto;html=1;" edge="1" parent="1" source="YTlHd1Vyg8An8Amco3qV-5">
          <mxGeometry relative="1" as="geometry">
            <mxPoint x="539" y="119" as="targetPoint" />
          </mxGeometry>
        </mxCell>
        <mxCell id="YTlHd1Vyg8An8Amco3qV-5" value="" style="outlineConnect=0;dashed=0;verticalLabelPosition=bottom;verticalAlign=top;align=center;html=1;shape=mxgraph.aws3.lambda_function;fillColor=#F58534;gradientColor=none;" vertex="1" parent="1">
          <mxGeometry x="419" y="99" width="40" height="40" as="geometry" />
        </mxCell>
        <mxCell id="YTlHd1Vyg8An8Amco3qV-8" value="" style="outlineConnect=0;dashed=0;verticalLabelPosition=bottom;verticalAlign=top;align=center;html=1;shape=mxgraph.aws3.dynamo_db;fillColor=#2E73B8;gradientColor=none;" vertex="1" parent="1">
          <mxGeometry x="536" y="91.5" width="50" height="55" as="geometry" />
        </mxCell>
        <mxCell id="YTlHd1Vyg8An8Amco3qV-10" value="" style="endArrow=classic;html=1;rounded=0;exitX=0.917;exitY=-0.025;exitDx=0;exitDy=0;exitPerimeter=0;" edge="1" parent="1" source="YTlHd1Vyg8An8Amco3qV-1">
          <mxGeometry width="50" height="50" relative="1" as="geometry">
            <mxPoint x="150.00000000000003" y="167.35" as="sourcePoint" />
            <mxPoint x="273.04" y="110.00225614698726" as="targetPoint" />
          </mxGeometry>
        </mxCell>
        <mxCell id="YTlHd1Vyg8An8Amco3qV-11" value="" style="endArrow=classic;html=1;rounded=0;entryX=0;entryY=0.5;entryDx=0;entryDy=0;entryPerimeter=0;" edge="1" parent="1" source="YTlHd1Vyg8An8Amco3qV-2" target="YTlHd1Vyg8An8Amco3qV-5">
          <mxGeometry width="50" height="50" relative="1" as="geometry">
            <mxPoint x="336" y="135" as="sourcePoint" />
            <mxPoint x="386" y="85" as="targetPoint" />
          </mxGeometry>
        </mxCell>
        <mxCell id="YTlHd1Vyg8An8Amco3qV-13" value="" style="endArrow=classic;html=1;rounded=0;" edge="1" parent="1">
          <mxGeometry width="50" height="50" relative="1" as="geometry">
            <mxPoint x="153" y="229" as="sourcePoint" />
            <mxPoint x="283" y="269" as="targetPoint" />
          </mxGeometry>
        </mxCell>
        <mxCell id="YTlHd1Vyg8An8Amco3qV-17" value="" style="outlineConnect=0;dashed=0;verticalLabelPosition=bottom;verticalAlign=top;align=center;html=1;shape=mxgraph.aws3.api_gateway;fillColor=#D9A741;gradientColor=none;" vertex="1" parent="1">
          <mxGeometry x="288" y="246" width="50" height="70" as="geometry" />
        </mxCell>
        <mxCell id="YTlHd1Vyg8An8Amco3qV-18" value="" style="outlineConnect=0;dashed=0;verticalLabelPosition=bottom;verticalAlign=top;align=center;html=1;shape=mxgraph.aws3.lambda_function;fillColor=#F58534;gradientColor=none;" vertex="1" parent="1">
          <mxGeometry x="424" y="260" width="40" height="40" as="geometry" />
        </mxCell>
        <mxCell id="YTlHd1Vyg8An8Amco3qV-19" value="" style="endArrow=classic;html=1;rounded=0;entryX=0;entryY=0.5;entryDx=0;entryDy=0;entryPerimeter=0;" edge="1" parent="1" source="YTlHd1Vyg8An8Amco3qV-17" target="YTlHd1Vyg8An8Amco3qV-18">
          <mxGeometry width="50" height="50" relative="1" as="geometry">
            <mxPoint x="344" y="296" as="sourcePoint" />
            <mxPoint x="394" y="246" as="targetPoint" />
          </mxGeometry>
        </mxCell>
        <mxCell id="YTlHd1Vyg8An8Amco3qV-20" value="" style="endArrow=classic;html=1;rounded=0;entryX=0;entryY=0.5;entryDx=0;entryDy=0;entryPerimeter=0;" edge="1" parent="1">
          <mxGeometry width="50" height="50" relative="1" as="geometry">
            <mxPoint x="464" y="280" as="sourcePoint" />
            <mxPoint x="540" y="280" as="targetPoint" />
          </mxGeometry>
        </mxCell>
        <mxCell id="YTlHd1Vyg8An8Amco3qV-22" value="" style="outlineConnect=0;dashed=0;verticalLabelPosition=bottom;verticalAlign=top;align=center;html=1;shape=mxgraph.aws3.dynamo_db;fillColor=#2E73B8;gradientColor=none;" vertex="1" parent="1">
          <mxGeometry x="537" y="253" width="50" height="55" as="geometry" />
        </mxCell>
        <mxCell id="YTlHd1Vyg8An8Amco3qV-25" value="" style="endArrow=classic;html=1;rounded=0;entryX=1;entryY=0.25;entryDx=0;entryDy=0;" edge="1" parent="1" source="YTlHd1Vyg8An8Amco3qV-2" target="YTlHd1Vyg8An8Amco3qV-1">
          <mxGeometry width="50" height="50" relative="1" as="geometry">
            <mxPoint x="200" y="196.5" as="sourcePoint" />
            <mxPoint x="160" y="200" as="targetPoint" />
          </mxGeometry>
        </mxCell>
        <mxCell id="YTlHd1Vyg8An8Amco3qV-27" value="1" style="ellipse;whiteSpace=wrap;html=1;aspect=fixed;strokeWidth=2;fontFamily=Tahoma;spacingBottom=4;spacingRight=2;strokeColor=#d3d3d3;" vertex="1" parent="1">
          <mxGeometry x="123" y="154" width="20" height="20" as="geometry" />
        </mxCell>
        <mxCell id="YTlHd1Vyg8An8Amco3qV-28" value="station_code*radius" style="text;html=1;align=center;verticalAlign=middle;whiteSpace=wrap;rounded=0;rotation=-30;" vertex="1" parent="1">
          <mxGeometry x="160" y="116.5" width="60" height="30" as="geometry" />
        </mxCell>
        <mxCell id="YTlHd1Vyg8An8Amco3qV-29" value="Airports API" style="text;html=1;align=center;verticalAlign=middle;whiteSpace=wrap;rounded=0;" vertex="1" parent="1">
          <mxGeometry x="278" y="160" width="60" height="30" as="geometry" />
        </mxCell>
        <mxCell id="YTlHd1Vyg8An8Amco3qV-30" value="FICON History API" style="text;html=1;align=center;verticalAlign=middle;whiteSpace=wrap;rounded=0;" vertex="1" parent="1">
          <mxGeometry x="285" y="325" width="60" height="30" as="geometry" />
        </mxCell>
        <mxCell id="YTlHd1Vyg8An8Amco3qV-31" value="Airport_REFERANCE" style="text;html=1;align=center;verticalAlign=middle;whiteSpace=wrap;rounded=0;" vertex="1" parent="1">
          <mxGeometry x="531" y="149" width="60" height="30" as="geometry" />
        </mxCell>
        <mxCell id="YTlHd1Vyg8An8Amco3qV-32" value="2" style="ellipse;whiteSpace=wrap;html=1;aspect=fixed;strokeWidth=2;fontFamily=Tahoma;spacingBottom=4;spacingRight=2;strokeColor=#d3d3d3;" vertex="1" parent="1">
          <mxGeometry x="245" y="151" width="20" height="20" as="geometry" />
        </mxCell>
        <mxCell id="YTlHd1Vyg8An8Amco3qV-33" value="airports" style="text;html=1;align=center;verticalAlign=middle;whiteSpace=wrap;rounded=0;rotation=-25;" vertex="1" parent="1">
          <mxGeometry x="187" y="160" width="60" height="30" as="geometry" />
        </mxCell>
        <mxCell id="YTlHd1Vyg8An8Amco3qV-35" value="ICAO Code" style="text;html=1;align=center;verticalAlign=middle;whiteSpace=wrap;rounded=0;rotation=15;" vertex="1" parent="1">
          <mxGeometry x="199" y="224" width="70" height="30" as="geometry" />
        </mxCell>
        <mxCell id="YTlHd1Vyg8An8Amco3qV-37" value="3" style="ellipse;whiteSpace=wrap;html=1;aspect=fixed;strokeWidth=2;fontFamily=Tahoma;spacingBottom=4;spacingRight=2;strokeColor=#d3d3d3;" vertex="1" parent="1">
          <mxGeometry x="175" y="215" width="20" height="20" as="geometry" />
        </mxCell>
        <mxCell id="YTlHd1Vyg8An8Amco3qV-38" value="FICON &amp;amp; FICON_HISTORY" style="text;html=1;align=center;verticalAlign=middle;whiteSpace=wrap;rounded=0;" vertex="1" parent="1">
          <mxGeometry x="536" y="317" width="60" height="30" as="geometry" />
        </mxCell>
        <mxCell id="YTlHd1Vyg8An8Amco3qV-39" value="" style="endArrow=classic;html=1;rounded=0;exitX=-0.09;exitY=0.679;exitDx=0;exitDy=0;exitPerimeter=0;" edge="1" parent="1" source="YTlHd1Vyg8An8Amco3qV-17">
          <mxGeometry width="50" height="50" relative="1" as="geometry">
            <mxPoint x="280" y="300" as="sourcePoint" />
            <mxPoint x="130" y="250" as="targetPoint" />
          </mxGeometry>
        </mxCell>
        <mxCell id="YTlHd1Vyg8An8Amco3qV-40" value="4" style="ellipse;whiteSpace=wrap;html=1;aspect=fixed;strokeWidth=2;fontFamily=Tahoma;spacingBottom=4;spacingRight=2;strokeColor=#d3d3d3;" vertex="1" parent="1">
          <mxGeometry x="233" y="295" width="20" height="20" as="geometry" />
        </mxCell>
        <mxCell id="YTlHd1Vyg8An8Amco3qV-41" value="&lt;b&gt;Station Weather UI - Field Conditions Flow&lt;/b&gt;" style="text;html=1;align=center;verticalAlign=middle;whiteSpace=wrap;rounded=0;" vertex="1" parent="1">
          <mxGeometry x="257" y="10" width="255" height="30" as="geometry" />
        </mxCell>
      </root>
    </mxGraphModel>
  </diagram>
</mxfile>
